<svg xmlns="http://www.w3.org/2000/svg" xmlns:xlink="http://www.w3.org/1999/xlink" version="1.1" x="0px" y="0px" viewBox="0 0 100 100" enable-background="new 0 0 100 100" xml:space="preserve"><g><path d="M44.346,81.476c-7.346,0-14.146-4.236-16.923-10.541c-0.223-0.505,0.007-1.095,0.512-1.318   c0.511-0.225,1.096,0.008,1.318,0.512c2.462,5.59,8.527,9.346,15.093,9.346c6.566,0,12.632-3.756,15.093-9.346   c0.222-0.504,0.808-0.737,1.318-0.512c0.505,0.222,0.734,0.813,0.512,1.318C58.493,77.24,51.692,81.476,44.346,81.476z"></path><path d="M59.631,59.014c-0.256,0-0.512-0.098-0.707-0.293c-2.115-2.112-7.188-2.494-9.68,0c-0.391,0.391-1.023,0.391-1.414,0   c-0.391-0.39-0.391-1.023,0-1.414c3.366-3.369,9.69-2.816,12.508,0c0.391,0.39,0.391,1.023,0,1.414   C60.143,58.916,59.887,59.014,59.631,59.014z"></path><path d="M40.006,59.014c-0.256,0-0.512-0.098-0.707-0.293c-2.115-2.112-7.188-2.494-9.68,0c-0.391,0.391-1.023,0.391-1.414,0   c-0.391-0.39-0.391-1.023,0-1.414c3.366-3.369,9.69-2.816,12.508,0c0.391,0.39,0.391,1.023,0,1.414   C40.518,58.916,40.262,59.014,40.006,59.014z"></path><path d="M56.31,50.145c-2.679,0-5.541-0.241-8.22-0.649c-7.048-1.073-15.016-3.712-16.93-7.189   c-0.532-0.965-0.596-1.972-0.185-2.91c0.182-0.413,2.439-3.331,2.439-3.331c0.343-0.431,0.971-0.504,1.405-0.16   c0.432,0.344,0.503,0.973,0.159,1.405l-1.404,1.765c-0.334,0.446-0.701,0.983-0.77,1.127c-0.106,0.243-0.192,0.597,0.106,1.139   c1.33,2.416,7.84,5.013,15.479,6.176c7.601,1.158,14.754,0.667,16.64-1.141c0.372-0.356,0.393-0.649,0.369-0.864   c-0.06-0.549,0.336-1.043,0.886-1.103c0.537-0.058,1.043,0.337,1.103,0.885c0.104,0.943-0.233,1.816-0.974,2.525   C64.682,49.482,60.75,50.145,56.31,50.145z"></path><path d="M43.489,26.084c-0.4,0-0.778-0.243-0.933-0.639c-0.199-0.515,0.056-1.094,0.571-1.294l13.253-5.141   c0.512-0.201,1.093,0.055,1.294,0.57c0.199,0.515-0.056,1.094-0.571,1.294l-13.253,5.141   C43.732,26.063,43.609,26.084,43.489,26.084z"></path><path d="M36.621,34.912c-0.4,0-0.778-0.243-0.933-0.639c-0.199-0.515,0.056-1.094,0.571-1.294l22.109-8.576   c0.512-0.201,1.094,0.056,1.294,0.57c0.199,0.515-0.056,1.094-0.571,1.294l-22.109,8.576C36.864,34.89,36.741,34.912,36.621,34.912   z"></path><path d="M32.266,42.765c-0.4,0-0.778-0.243-0.933-0.639c-0.199-0.515,0.056-1.094,0.571-1.294l28.505-11.058   c0.512-0.202,1.093,0.055,1.294,0.57c0.199,0.515-0.056,1.094-0.571,1.294L32.627,42.697   C32.509,42.743,32.386,42.765,32.266,42.765z"></path><path d="M37.936,46.729c-0.4,0-0.778-0.243-0.933-0.639c-0.199-0.515,0.056-1.094,0.571-1.294l24.844-9.637   c0.511-0.201,1.093,0.055,1.294,0.57c0.199,0.515-0.056,1.094-0.571,1.294l-24.844,9.637   C38.179,46.707,38.056,46.729,37.936,46.729z"></path><path d="M47.127,49.327c-0.4,0-0.778-0.243-0.933-0.639c-0.199-0.515,0.056-1.094,0.571-1.294l17.846-6.922   c0.512-0.201,1.093,0.055,1.294,0.57c0.199,0.515-0.056,1.094-0.571,1.294l-17.846,6.922C47.37,49.305,47.247,49.327,47.127,49.327   z"></path><path d="M53.899,13.336c-2.119,0-3.844-1.724-3.844-3.843c0-2.12,1.725-3.844,3.844-3.844s3.843,1.724,3.843,3.844   C57.742,11.612,56.019,13.336,53.899,13.336z M53.899,7.649c-1.017,0-1.844,0.827-1.844,1.844s0.827,1.843,1.844,1.843   s1.843-0.827,1.843-1.843S54.916,7.649,53.899,7.649z"></path><path d="M44.346,94.351c-17.008,0-30.845-13.837-30.845-30.845c0-12.37,7.515-23.354,19.193-28.133L50.91,12.456   c0.462-0.582,1.215-0.859,1.941-0.72l2.001,0.383c0.68,0.13,1.244,0.602,1.491,1.248l11.787,30.734   c4.49,5.559,7.06,12.612,7.06,19.404c0,2.445-0.296,4.844-0.931,7.53l0.683-0.101c1.338-1.404,2.926-2.115,4.731-2.115   c3.764,0,6.825,3.062,6.825,6.825c0,3.764-3.062,6.825-6.825,6.825c-0.095,0-0.312,0-10.296-0.795   C64.061,89.3,54.17,94.351,44.346,94.351z M53.112,16.113c0,0-18.127,22.654-18.456,22.783   c-10.422,4.063-17.155,13.723-17.155,24.61c0,14.802,12.043,26.845,26.845,26.845c8.933,0,17.901-4.751,22.318-11.823   c0.396-0.633,1.105-0.996,1.855-0.934c4.268,0.34,10.78,0.855,11.229,0.878c1.482-0.001,2.75-1.269,2.75-2.827   c0-2.813-3.228-3.853-4.969-1.595c-0.31,0.402-0.771,0.662-1.275,0.735l-4.452,0.655c-0.683,0.106-1.379-0.162-1.826-0.696   c-0.445-0.534-0.582-1.261-0.36-1.921c0.197-0.586,0.478-1.63,0.695-2.474c2.563-9.974-1.438-19.066-5.475-23.958   C64.698,46.224,53.112,16.113,53.112,16.113z"></path><path d="M72.418,79.916c-0.027,0-0.055-0.001-0.082-0.003l-17.5-1.417c-0.55-0.044-0.96-0.527-0.916-1.077   c0.046-0.55,0.541-0.965,1.078-0.916l17.5,1.417c0.55,0.044,0.96,0.527,0.916,1.077C73.371,79.519,72.934,79.916,72.418,79.916z"></path><path d="M56.082,77.874c-0.485,0-0.912-0.354-0.987-0.849c-0.084-0.546,0.291-1.056,0.837-1.14l19.834-3.042   c0.543-0.085,1.057,0.291,1.14,0.837c0.084,0.546-0.291,1.056-0.837,1.14C76.068,74.82,56.132,77.874,56.082,77.874z"></path></g></svg>