<svg fill="#FFFFFF" xmlns="http://www.w3.org/2000/svg" xmlns:xlink="http://www.w3.org/1999/xlink" version="1.1" x="0px" y="0px" viewBox="-255 347 100 100" style="enable-background:new -255 347 100 100;" xml:space="preserve"><path d="M-205,363.2c-18.7,0-33.8,15.2-33.8,33.8s15.1,33.8,33.8,33.8s33.8-15.1,33.8-33.8S-186.3,363.2-205,363.2z M-205,426.8  c-16.4,0-29.8-13.4-29.8-29.8s13.4-29.8,29.8-29.8s29.8,13.4,29.8,29.8S-188.6,426.8-205,426.8z"></path><polygon points="-203,385.3 -207,385.3 -207,395 -216.7,395 -216.7,399 -207,399 -207,408.7 -203,408.7 -203,399 -193.3,399   -193.3,395 -203,395 "></polygon></svg>